<svg width="18" height="21" viewBox="0 0 18 21" fill="none" xmlns="http://www.w3.org/2000/svg">
<path d="M16.9343 8.88238C16.9342 9.31759 16.6051 9.68232 16.1721 9.72609C14.9637 9.84759 13.8852 9.58131 12.8156 9.0821L12.8156 13.0826L12.8105 13.4392C12.7543 15.1981 12.2584 16.6246 11.4563 17.7118C10.6019 18.8698 9.43488 19.5946 8.20069 19.9311C5.78633 20.5891 2.95793 19.7814 1.65379 17.6343C0.795922 16.2218 0.57317 13.9705 1.22888 11.975C1.90572 9.91561 3.54591 8.04871 6.45927 7.57504C6.70461 7.53517 6.95566 7.60459 7.14503 7.76559C7.3344 7.92667 7.44357 8.16301 7.44359 8.41162V11.3595C7.44359 11.7735 7.14467 12.1274 6.73643 12.1961C5.65478 12.3779 5.32731 12.6701 5.14989 13.0164C4.71922 13.857 4.8023 14.5218 5.05818 14.9901C5.33105 15.4894 5.84575 15.8487 6.40118 15.9581C6.94072 16.0644 7.46562 15.9289 7.84711 15.5128C8.24189 15.0821 8.60481 14.2146 8.48294 12.6251C8.48129 12.6035 8.48091 12.5815 8.48091 12.5599L8.48091 1.69557C8.48091 1.4707 8.57053 1.25542 8.72954 1.09641C8.88854 0.937411 9.10382 0.847787 9.32869 0.847785H11.9271C12.3579 0.847785 12.7206 1.17078 12.7698 1.59877C12.9033 2.76231 13.277 3.60099 13.8112 4.15944C14.3364 4.70855 15.0901 5.06363 16.1426 5.13256C16.5882 5.16193 16.9343 5.53268 16.9343 5.97933V8.88238Z" fill="black" stroke="white" stroke-width="1.62519" stroke-linejoin="round"/>
<path fill-rule="evenodd" clip-rule="evenodd" d="M11.8376 1.04343C12.1341 3.62591 13.6503 5.44805 16.1032 5.60875V8.0582L16.0874 8.05972V5.97901C13.6345 5.81842 12.2242 4.27829 11.9278 1.69581L9.32934 1.69575V12.5605C9.70431 17.4508 5.97028 17.5961 4.54196 15.7419C6.21732 16.8112 8.93758 16.1162 8.61501 11.9081V1.04343H11.8377H11.8376ZM4.85597 19.0543C3.38773 18.746 2.05267 17.8509 1.26866 16.5419C-0.636068 13.3619 1.08087 8.17906 6.60532 7.64568V10.7078L6.59627 10.7094V8.41194C1.4745 9.24435 0.960277 14.8588 2.37872 17.1943C2.92568 18.0949 3.82366 18.7284 4.85592 19.0543H4.85597Z" fill="#26F4EE"/>
<path fill-rule="evenodd" clip-rule="evenodd" d="M12.5818 1.69608C12.7753 3.38197 13.4436 4.8169 14.5667 5.65494C13.047 5.05755 12.1564 3.68653 11.9278 1.69591L12.5818 1.69608ZM16.0874 6.3426C16.2964 6.3879 16.5144 6.41855 16.7413 6.43337V9.33692C15.3184 9.47987 14.0732 9.00188 12.6222 8.11143L12.845 13.0841C12.845 14.6877 12.8508 15.4206 12.0076 16.8958C10.1159 20.2053 6.71088 20.4669 4.40833 18.8906C7.41919 20.1585 11.9771 18.6195 11.9683 13.0841V7.65677C13.4193 8.54722 14.6644 9.02521 16.0874 8.8822V6.3426ZM6.59631 8.44134C6.89392 8.37812 7.20634 8.32949 7.53487 8.29777L7.53487 11.3599C6.33856 11.561 5.57874 11.9359 5.22343 12.6293C4.10437 14.813 5.54517 16.5449 7.15692 16.8052C5.28339 17.1229 3.08635 15.1853 4.39618 12.6293C4.75144 11.936 5.40001 11.561 6.59631 11.3599V8.44134Z" fill="#FB2C53"/>
<path fill-rule="evenodd" clip-rule="evenodd" d="M11.9272 1.69563C12.2237 4.27811 13.6339 5.81818 16.0868 5.97882V8.88226C14.6639 9.02532 13.4187 8.54727 11.9677 7.65683L11.9677 13.0841C11.9791 20.1679 4.51162 20.7069 2.37819 17.194C0.959806 14.8585 1.47398 9.24411 6.59574 8.4117V11.3599C5.39943 11.561 4.75087 11.936 4.39561 12.6293C2.20012 16.9136 9.85789 19.4626 9.3287 12.5603L9.3287 1.69557L11.9272 1.69563H11.9272Z" fill="black"/>
</svg>
